HIERARCHY
ROOT SpineBase
{
  OFFSET 0.000000 0.000000 0.000000
  CHANNELS 6 Xposition Yposition Zposition Zrotation Xrotation Yrotation
  JOINT SpineMid
  {
    OFFSET 0.000000 30.295815 0.000000
    CHANNELS 3 Zrotation Xrotation Yrotation
    JOINT SpineShoulder
    {
      OFFSET -0.114613 22.504464 -0.893586
      CHANNELS 3 Zrotation Xrotation Yrotation
      JOINT Neck
      {
        OFFSET -0.037169 7.435920 -0.625308
        CHANNELS 3 Zrotation Xrotation Yrotation
        JOINT Head
        {
          OFFSET -5.473099 13.636747 3.354160
          CHANNELS 3 Zrotation Xrotation Yrotation
          End Site
          {
            OFFSET 0 0 0
          }
        }
      }
      JOINT ShoulderLeft
      {
        OFFSET -12.316009 -8.385476 15.181359
        CHANNELS 3 Zrotation Xrotation Yrotation
        JOINT ElbowLeft
        {
          OFFSET -0.143690 -25.997197 -1.014261
          CHANNELS 3 Zrotation Xrotation Yrotation
          JOINT WristLeft
          {
            OFFSET -2.748039 -19.792306 -8.189351
            CHANNELS 3 Zrotation Xrotation Yrotation
            JOINT HandLeft
            {
              OFFSET 0.332396 -4.418529 -2.788729
              CHANNELS 3 Zrotation Xrotation Yrotation
              JOINT HandTipLeft
              {
                OFFSET 0.729209 -8.786505 -2.056120
                CHANNELS 3 Zrotation Xrotation Yrotation
                End Site
                {
                  OFFSET 0 0 0
                }
              }
              JOINT ThumbLeft
              {
                OFFSET -2.979489 0.528484 -1.250644
                CHANNELS 3 Zrotation Xrotation Yrotation
                End Site
                {
                  OFFSET 0 0 0
                }
              }
            }
          }
        }
      }
      JOINT ShoulderRight
      {
        OFFSET 10.216892 -3.173051 -12.968865
        CHANNELS 3 Zrotation Xrotation Yrotation
        JOINT ElbowRight
        {
          OFFSET 5.471280 -20.747830 -6.289571
          CHANNELS 3 Zrotation Xrotation Yrotation
          JOINT WristRight
          {
            OFFSET -4.832551 -21.513129 -2.613185
            CHANNELS 3 Zrotation Xrotation Yrotation
            JOINT HandRight
            {
              OFFSET -2.673785 -7.916571 0.921117
              CHANNELS 3 Zrotation Xrotation Yrotation
              JOINT HandTipRight
              {
                OFFSET -2.210314 -6.775146 -1.069675
                CHANNELS 3 Zrotation Xrotation Yrotation
                End Site
                {
                  OFFSET 0 0 0
                }
              }
              JOINT ThumbRight
              {
                OFFSET 3.810882 -0.981917 -0.714761
                CHANNELS 3 Zrotation Xrotation Yrotation
                End Site
                {
                  OFFSET 0 0 0
                }
              }
            }
          }
        }
      }
    }
  }
  JOINT HipLeft
  {
    OFFSET -5.161625 -0.303796 1.354106
    CHANNELS 3 Zrotation Xrotation Yrotation
    JOINT KneeLeft
    {
      OFFSET -1.624728 -30.500110 -0.504677
      CHANNELS 3 Zrotation Xrotation Yrotation
      JOINT AnkleLeft
      {
        OFFSET 1.271362 -34.360737 2.741170
        CHANNELS 3 Zrotation Xrotation Yrotation
        JOINT FootLeft
        {
          OFFSET -3.771326 -7.331033 -6.228766
          CHANNELS 3 Zrotation Xrotation Yrotation
          End Site
          {
            OFFSET 0 0 0
          }
        }
      }
    }
  }
  JOINT HipRight
  {
    OFFSET 4.269338 1.708080 -8.548958
    CHANNELS 3 Zrotation Xrotation Yrotation
    JOINT KneeRight
    {
      OFFSET 8.812717 -27.852358 -7.834972
      CHANNELS 3 Zrotation Xrotation Yrotation
      JOINT AnkleRight
      {
        OFFSET 8.515701 -36.523101 7.626127
        CHANNELS 3 Zrotation Xrotation Yrotation
        JOINT FootRight
        {
          OFFSET -3.664034 -8.803460 -4.535470
          CHANNELS 3 Zrotation Xrotation Yrotation
          End Site
          {
            OFFSET 0 0 0
          }
        }
      }
    }
  }
}
MOTION
Frames: 8
Frame Time: 0.033333
45.952918 79.914139 373.787195 -0.000000 0.000000 46.398778 -0.000000 0.000000 -46.398778 -0.000000 0.000000 0.000000 -0.000000 0.000000 0.000000 0.000000 0.000000 0.000000 -0.000000 0.000000 0.000000 -0.000000 0.000000 0.000000 -0.000000 0.000000 0.000000 -0.000000 0.000000 0.000000 0.000000 0.000000 0.000000 0.000000 0.000000 0.000000 -0.000000 0.000000 0.000000 -0.000000 0.000000 0.000000 -0.000000 0.000000 0.000000 -0.000000 0.000000 0.000000 0.000000 0.000000 0.000000 0.000000 0.000000 0.000000 -0.000000 0.000000 -46.398778 -0.000000 0.000000 0.000000 -0.000000 0.000000 0.000000 0.000000 0.000000 0.000000 -0.000000 0.000000 -46.398778 -0.000000 0.000000 0.000000 -0.000000 0.000000 0.000000 0.000000 0.000000 0.000000
45.806564 79.978822 373.672156 -0.326612 -0.032601 46.707741 0.247694 -0.215374 -46.707368 -0.000000 0.000000 0.000000 -0.000000 0.000000 0.000000 0.000000 0.000000 0.000000 -0.000000 0.000000 0.000000 0.164634 -1.396184 0.128420 0.273950 -0.706549 -0.568022 -0.456503 2.098650 0.449315 0.000000 0.000000 0.000000 0.000000 0.000000 0.000000 -0.000000 0.000000 0.000000 2.286455 0.501777 -0.402087 0.517897 2.831042 -0.481201 1.508155 -6.145471 1.344774 0.000000 0.000000 0.000000 0.000000 0.000000 0.000000 0.247694 -0.215374 -46.707368 -0.000000 0.000000 0.000000 -0.000000 0.000000 0.000000 0.000000 0.000000 0.000000 0.247694 -0.215374 -46.707368 -0.000000 0.000000 0.000000 1.986010 1.738264 -1.775727 0.000000 0.000000 0.000000
45.689549 80.033897 373.541743 -0.587926 -0.068419 46.967492 0.451225 -0.383062 -46.966334 -0.000000 0.000000 0.000000 -0.000000 0.000000 0.000000 0.000000 0.000000 0.000000 -0.000000 0.000000 0.000000 0.222229 -2.139904 0.211034 0.834535 -1.673817 -1.184837 -1.129374 3.791689 1.015069 0.000000 0.000000 0.000000 0.000000 0.000000 0.000000 -0.000000 0.000000 0.000000 3.635029 0.817904 -0.655475 0.863366 4.767175 -0.935765 2.726252 -10.609577 2.775013 0.000000 0.000000 0.000000 0.000000 0.000000 0.000000 0.451225 -0.383062 -46.966334 -0.000000 0.000000 0.000000 -0.000000 0.000000 0.000000 0.000000 0.000000 0.000000 0.451225 -0.383062 -46.966334 -0.000000 0.000000 0.000000 3.661920 3.104231 -3.275762 0.000000 0.000000 0.000000
45.601874 80.079365 373.395958 -0.783883 -0.107458 47.180477 0.611630 -0.501934 -47.178533 -0.000000 0.000000 0.000000 -0.000000 0.000000 0.000000 0.000000 0.000000 0.000000 -0.000000 0.000000 0.000000 0.176481 -2.273466 0.248269 1.679676 -2.782155 -1.835641 -2.013483 4.992988 1.690173 0.000000 0.000000 0.000000 0.000000 0.000000 0.000000 -0.000000 0.000000 0.000000 4.127594 0.976743 -0.761570 0.977508 5.844970 -1.268851 3.647657 -13.572562 3.977476 0.000000 0.000000 0.000000 0.000000 0.000000 0.000000 0.611630 -0.501934 -47.178533 -0.000000 0.000000 0.000000 -0.000000 0.000000 0.000000 0.000000 0.000000 0.000000 0.611630 -0.501934 -47.178533 -0.000000 0.000000 0.000000 4.942097 4.076431 -4.417201 0.000000 0.000000 0.000000
45.543538 80.115226 373.234801 -0.914428 -0.149725 47.348645 0.085619 0.057624 -47.385022 0.898770 0.048274 0.035555 -0.000000 0.000000 0.000000 0.000000 0.000000 0.000000 -0.698959 -0.603800 0.026929 0.727487 -1.215189 0.207855 2.804254 -3.953730 -2.490783 -3.087292 5.638835 2.453932 0.000000 0.000000 0.000000 0.000000 0.000000 0.000000 -0.000000 0.000000 0.000000 3.807120 0.992038 -0.723068 0.817164 6.088197 -1.436760 4.251858 -15.177152 4.775119 0.000000 0.000000 0.000000 0.000000 0.000000 0.000000 0.729694 -0.571103 -47.346203 -0.000000 0.000000 0.000000 -0.000000 0.000000 0.000000 0.000000 0.000000 0.000000 0.164374 -1.384012 -47.722781 -0.221156 0.965094 0.368796 5.761204 4.646937 -5.136475 0.000000 0.000000 0.000000
45.514541 80.141479 373.058270 -0.979499 -0.195227 47.473474 0.092860 0.080455 -47.513289 0.975975 0.073078 0.038503 -0.000000 0.000000 0.000000 0.000000 0.000000 0.000000 -0.789787 -0.773331 0.029764 0.570625 -0.005199 0.160258 4.199211 -5.154553 -3.106691 -4.313580 5.694314 3.272760 0.000000 0.000000 0.000000 0.000000 0.000000 0.000000 0.190783 1.113632 0.233200 2.487626 -0.258325 -0.726922 0.343268 5.484228 -1.437668 4.528800 -15.480556 5.094294 0.000000 0.000000 0.000000 0.000000 0.000000 0.000000 0.805966 -0.589890 -47.470993 0.502243 -0.728210 0.016304 -0.502076 0.728325 -0.009921 0.000000 0.000000 0.000000 -0.006774 -1.569266 -47.934987 -0.182499 1.259433 0.450686 6.077420 4.814085 -5.392882 0.000000 0.000000 0.000000
45.479256 80.151527 372.908026 -1.009804 -0.283561 47.637544 0.107183 0.152026 -47.680695 0.192236 -0.029242 -0.030961 0.857533 0.132401 0.071789 0.000000 0.000000 0.000000 0.167587 -1.364978 0.099644 0.692783 1.496077 -0.044323 1.077560 -10.806543 -1.480839 -3.738522 10.978152 2.722514 0.000000 0.000000 0.000000 0.000000 0.000000 0.000000 1.882002 1.509965 0.108748 0.911742 -0.529310 -0.458853 -0.905047 5.536646 -1.685227 6.010214 -15.963332 5.640777 0.000000 0.000000 0.000000 0.000000 0.000000 0.000000 0.889956 -0.555074 -47.635732 0.616259 -0.919223 0.020078 -0.802170 0.133070 0.556920 0.000000 0.000000 0.000000 -0.183600 -1.735544 -48.203713 -0.164405 1.586981 0.548798 4.575101 3.464056 -3.941493 0.000000 0.000000 0.000000
45.485700 80.151116 372.698201 -0.955838 -0.325808 47.732826 0.112308 0.186739 -47.774846 0.220213 -0.027706 -0.027232 0.798125 0.145912 0.066836 0.000000 0.000000 0.000000 -0.078513 -0.961337 0.100976 0.142536 3.285899 -0.018361 6.029176 -10.639918 -3.513830 -10.228232 9.103358 6.290236 0.000000 0.000000 0.000000 0.000000 0.000000 0.000000 2.926027 2.022500 -0.123081 -2.402631 -0.950959 -0.067084 -2.019996 0.494420 -0.577425 2.238879 -11.077925 4.003413 0.000000 0.000000 0.000000 0.000000 0.000000 0.000000 0.883992 -0.488206 -47.731777 0.808572 -1.193871 0.028724 -1.143136 0.314640 0.733210 0.000000 0.000000 0.000000 -0.477476 -1.857871 -48.400439 -0.120030 1.927255 0.642806 3.894200 2.794627 -3.269712 0.000000 0.000000 0.000000
